<mxfile host="app.diagrams.net" agent="Mozilla/5.0 (Windows NT 10.0; Win64; x64) AppleWebKit/537.36 (KHTML, like Gecko) Chrome/136.0.0.0 Safari/537.36" version="27.0.6">
  <diagram name="Pagina-1" id="kpaGEh9nXqvZMZwJ1vCg">
    <mxGraphModel dx="1042" dy="535" grid="1" gridSize="10" guides="1" tooltips="1" connect="1" arrows="1" fold="1" page="1" pageScale="1" pageWidth="827" pageHeight="1169" background="light-dark(#FFFFFF,#F9F9F9)" math="0" shadow="0">
      <root>
        <mxCell id="0" />
        <mxCell id="1" parent="0" />
        <mxCell id="OoIWjtk9Z4yZWAxyzODX-16" value="&lt;span style=&quot;font-size: 14px;&quot;&gt;&lt;font face=&quot;Helvetica&quot; style=&quot;color: light-dark(rgb(0, 0, 0), rgb(0, 0, 0));&quot;&gt;Utente&lt;/font&gt;&lt;/span&gt;" style="shape=umlActor;verticalLabelPosition=bottom;verticalAlign=top;html=1;outlineConnect=0;strokeColor=light-dark(#000000,#000000);fillColor=light-dark(#FFFFC6,#FDF89C);" parent="1" vertex="1">
          <mxGeometry x="310" y="350" width="30" height="60" as="geometry" />
        </mxCell>
        <mxCell id="OoIWjtk9Z4yZWAxyzODX-3" value="&lt;font style=&quot;color: light-dark(rgb(0, 0, 0), rgb(0, 0, 0));&quot; face=&quot;Courier New&quot;&gt;&lt;span style=&quot;font-size: 14px;&quot;&gt;&lt;b&gt;Login&lt;/b&gt;&lt;/span&gt;&lt;/font&gt;" style="ellipse;whiteSpace=wrap;html=1;fillColor=light-dark(#FFFFC6,#FDF89C);strokeColor=light-dark(#000000,#000000);gradientColor=none;" parent="1" vertex="1">
          <mxGeometry x="517.5" y="290" width="165" height="60" as="geometry" />
        </mxCell>
        <mxCell id="OoIWjtk9Z4yZWAxyzODX-4" value="&lt;font style=&quot;color: light-dark(rgb(0, 0, 0), rgb(0, 0, 0));&quot; face=&quot;Courier New&quot;&gt;&lt;span style=&quot;font-size: 14px;&quot;&gt;&lt;b&gt;Registra&lt;/b&gt;&lt;/span&gt;&lt;/font&gt;&lt;div&gt;&lt;font style=&quot;color: light-dark(rgb(0, 0, 0), rgb(0, 0, 0));&quot; face=&quot;Courier New&quot;&gt;&lt;span style=&quot;font-size: 14px;&quot;&gt;&lt;b&gt;Account&lt;/b&gt;&lt;/span&gt;&lt;/font&gt;&lt;/div&gt;" style="ellipse;whiteSpace=wrap;html=1;fillColor=light-dark(#FFFFC6,#FDF89C);strokeColor=light-dark(#000000,#000000);" parent="1" vertex="1">
          <mxGeometry x="517.5" y="150" width="165" height="60" as="geometry" />
        </mxCell>
        <mxCell id="OoIWjtk9Z4yZWAxyzODX-5" value="&lt;font style=&quot;color: light-dark(rgb(0, 0, 0), rgb(0, 0, 0));&quot; face=&quot;Courier New&quot;&gt;&lt;span style=&quot;font-size: 14px;&quot;&gt;&lt;b&gt;Logout&lt;/b&gt;&lt;/span&gt;&lt;/font&gt;" style="ellipse;whiteSpace=wrap;html=1;fillColor=light-dark(#FFFFC6,#FDF89C);strokeColor=light-dark(#000000,#000000);" parent="1" vertex="1">
          <mxGeometry x="517.5" y="360" width="165" height="60" as="geometry" />
        </mxCell>
        <mxCell id="OoIWjtk9Z4yZWAxyzODX-7" value="&lt;font face=&quot;Courier New&quot; style=&quot;color: light-dark(rgb(0, 0, 0), rgb(0, 0, 0));&quot;&gt;&lt;span style=&quot;font-size: 14px;&quot;&gt;&lt;b style=&quot;&quot;&gt;Recupero&lt;/b&gt;&lt;/span&gt;&lt;/font&gt;&lt;div&gt;&lt;font face=&quot;Courier New&quot; style=&quot;color: light-dark(rgb(0, 0, 0), rgb(0, 0, 0));&quot;&gt;&lt;span style=&quot;font-size: 14px;&quot;&gt;&lt;b style=&quot;&quot;&gt;Password&lt;/b&gt;&lt;/span&gt;&lt;/font&gt;&lt;/div&gt;" style="ellipse;whiteSpace=wrap;html=1;fillColor=light-dark(#FFFFC6,#FDF89C);strokeColor=light-dark(#000000,#000000);" parent="1" vertex="1">
          <mxGeometry x="517.5" y="430" width="165" height="60" as="geometry" />
        </mxCell>
        <mxCell id="OoIWjtk9Z4yZWAxyzODX-17" value="&lt;font face=&quot;Courier New&quot; style=&quot;color: light-dark(rgb(0, 0, 0), rgb(0, 0, 0));&quot;&gt;&lt;span style=&quot;font-size: 14px;&quot;&gt;&lt;b style=&quot;&quot;&gt;Crea&lt;/b&gt;&lt;/span&gt;&lt;/font&gt;&lt;div&gt;&lt;font face=&quot;Courier New&quot; style=&quot;color: light-dark(rgb(0, 0, 0), rgb(0, 0, 0));&quot;&gt;&lt;span style=&quot;font-size: 14px;&quot;&gt;&lt;b style=&quot;&quot;&gt;Conferenza&lt;/b&gt;&lt;/span&gt;&lt;/font&gt;&lt;/div&gt;" style="ellipse;whiteSpace=wrap;html=1;fillColor=light-dark(#FFFFC6,#FDF89C);strokeColor=light-dark(#000000,#000000);" parent="1" vertex="1">
          <mxGeometry x="517.5" y="500" width="165" height="60" as="geometry" />
        </mxCell>
        <mxCell id="OoIWjtk9Z4yZWAxyzODX-8" value="&lt;font face=&quot;Courier New&quot; style=&quot;color: light-dark(rgb(0, 0, 0), rgb(0, 0, 0)); font-size: 14px;&quot;&gt;&lt;b style=&quot;&quot;&gt;Visualizza&lt;/b&gt;&lt;/font&gt;&lt;div&gt;&lt;font face=&quot;Courier New&quot; style=&quot;color: light-dark(rgb(0, 0, 0), rgb(0, 0, 0)); font-size: 14px;&quot;&gt;&lt;b&gt;Conferenze&lt;/b&gt;&lt;/font&gt;&lt;/div&gt;&lt;div&gt;&lt;font face=&quot;Courier New&quot; style=&quot;color: light-dark(rgb(0, 0, 0), rgb(0, 0, 0)); font-size: 14px;&quot;&gt;&lt;b style=&quot;&quot;&gt;Attive&lt;/b&gt;&lt;/font&gt;&lt;/div&gt;" style="ellipse;whiteSpace=wrap;html=1;fillColor=light-dark(#FFFFC6,#FDF89C);strokeColor=light-dark(#000000,#000000);" parent="1" vertex="1">
          <mxGeometry x="517.5" y="570" width="165" height="60" as="geometry" />
        </mxCell>
        <mxCell id="OoIWjtk9Z4yZWAxyzODX-18" value="uc" style="shape=umlFrame;whiteSpace=wrap;html=1;pointerEvents=0;strokeColor=light-dark(#000000,#000000);width=76;height=28;" parent="1" vertex="1">
          <mxGeometry x="270" y="130" width="680" height="580" as="geometry" />
        </mxCell>
        <mxCell id="OoIWjtk9Z4yZWAxyzODX-27" value="" style="endArrow=none;html=1;rounded=0;strokeColor=light-dark(#000000,#000000);endFill=0;strokeWidth=1;startSize=6;jumpSize=6;targetPerimeterSpacing=0;endSize=6;entryX=1;entryY=0.5;entryDx=0;entryDy=0;startFill=0;" parent="1" target="OoIWjtk9Z4yZWAxyzODX-4" edge="1">
          <mxGeometry width="50" height="50" relative="1" as="geometry">
            <mxPoint x="840" y="370" as="sourcePoint" />
            <mxPoint x="503" y="110" as="targetPoint" />
            <Array as="points" />
          </mxGeometry>
        </mxCell>
        <mxCell id="OoIWjtk9Z4yZWAxyzODX-28" value="" style="endArrow=none;html=1;rounded=0;strokeColor=light-dark(#000000,#000000);endFill=0;strokeWidth=1;startSize=6;jumpSize=6;targetPerimeterSpacing=0;endSize=6;entryX=1;entryY=0.5;entryDx=0;entryDy=0;startFill=0;" parent="1" target="OoIWjtk9Z4yZWAxyzODX-3" edge="1">
          <mxGeometry width="50" height="50" relative="1" as="geometry">
            <mxPoint x="840" y="370" as="sourcePoint" />
            <mxPoint x="668" y="110" as="targetPoint" />
            <Array as="points" />
          </mxGeometry>
        </mxCell>
        <mxCell id="OoIWjtk9Z4yZWAxyzODX-29" value="" style="endArrow=none;html=1;rounded=0;strokeColor=light-dark(#000000,#000000);endFill=0;strokeWidth=1;startSize=6;jumpSize=6;targetPerimeterSpacing=0;endSize=6;entryX=1;entryY=0.5;entryDx=0;entryDy=0;startFill=0;" parent="1" target="OoIWjtk9Z4yZWAxyzODX-5" edge="1">
          <mxGeometry width="50" height="50" relative="1" as="geometry">
            <mxPoint x="840" y="370" as="sourcePoint" />
            <mxPoint x="668" y="200" as="targetPoint" />
            <Array as="points" />
          </mxGeometry>
        </mxCell>
        <mxCell id="OoIWjtk9Z4yZWAxyzODX-30" value="" style="endArrow=none;html=1;rounded=0;strokeColor=light-dark(#000000,#000000);endFill=0;strokeWidth=1;startSize=6;jumpSize=6;targetPerimeterSpacing=0;endSize=6;entryX=1;entryY=0.5;entryDx=0;entryDy=0;startFill=0;" parent="1" target="OoIWjtk9Z4yZWAxyzODX-7" edge="1">
          <mxGeometry width="50" height="50" relative="1" as="geometry">
            <mxPoint x="840" y="370" as="sourcePoint" />
            <mxPoint x="668" y="290" as="targetPoint" />
            <Array as="points" />
          </mxGeometry>
        </mxCell>
        <mxCell id="OoIWjtk9Z4yZWAxyzODX-32" value="" style="endArrow=none;html=1;rounded=0;strokeColor=light-dark(#000000,#000000);endFill=0;strokeWidth=1;startSize=6;jumpSize=6;targetPerimeterSpacing=0;endSize=6;entryX=1;entryY=0.5;entryDx=0;entryDy=0;startFill=0;" parent="1" target="OoIWjtk9Z4yZWAxyzODX-17" edge="1">
          <mxGeometry width="50" height="50" relative="1" as="geometry">
            <mxPoint x="840" y="370" as="sourcePoint" />
            <mxPoint x="668" y="470" as="targetPoint" />
            <Array as="points" />
          </mxGeometry>
        </mxCell>
        <mxCell id="OoIWjtk9Z4yZWAxyzODX-33" value="" style="endArrow=none;html=1;rounded=0;strokeColor=light-dark(#000000,#000000);endFill=0;strokeWidth=1;startSize=6;jumpSize=6;targetPerimeterSpacing=0;endSize=6;entryX=1;entryY=0.5;entryDx=0;entryDy=0;startFill=0;" parent="1" target="OoIWjtk9Z4yZWAxyzODX-8" edge="1">
          <mxGeometry width="50" height="50" relative="1" as="geometry">
            <mxPoint x="840" y="370" as="sourcePoint" />
            <mxPoint x="668" y="565" as="targetPoint" />
            <Array as="points" />
          </mxGeometry>
        </mxCell>
        <mxCell id="OoIWjtk9Z4yZWAxyzODX-34" value="&lt;div&gt;&lt;span style=&quot;font-size: 14px;&quot;&gt;&lt;font face=&quot;Helvetica&quot; style=&quot;color: light-dark(rgb(0, 0, 0), rgb(0, 0, 0));&quot;&gt;DBMS&lt;/font&gt;&lt;/span&gt;&lt;/div&gt;&lt;div&gt;&lt;span style=&quot;font-size: 14px;&quot;&gt;&lt;br&gt;&lt;/span&gt;&lt;/div&gt;" style="shape=umlActor;verticalLabelPosition=bottom;verticalAlign=top;html=1;outlineConnect=0;strokeColor=light-dark(#000000,#000000);fillColor=light-dark(#FFFFC6,#FDF89C);" parent="1" vertex="1">
          <mxGeometry x="860" y="360" width="30" height="60" as="geometry" />
        </mxCell>
        <mxCell id="OoIWjtk9Z4yZWAxyzODX-35" value="" style="endArrow=none;html=1;rounded=0;strokeColor=light-dark(#000000,#000000);endFill=0;strokeWidth=1;startSize=6;jumpSize=6;targetPerimeterSpacing=0;endSize=6;entryX=0;entryY=0.5;entryDx=0;entryDy=0;startFill=0;" parent="1" target="OoIWjtk9Z4yZWAxyzODX-8" edge="1">
          <mxGeometry width="50" height="50" relative="1" as="geometry">
            <mxPoint x="350" y="380" as="sourcePoint" />
            <mxPoint x="503" y="660" as="targetPoint" />
            <Array as="points" />
          </mxGeometry>
        </mxCell>
        <mxCell id="OoIWjtk9Z4yZWAxyzODX-36" value="" style="endArrow=none;html=1;rounded=0;strokeColor=light-dark(#000000,#000000);endFill=0;strokeWidth=1;startSize=6;jumpSize=6;targetPerimeterSpacing=0;endSize=6;entryX=0;entryY=0.5;entryDx=0;entryDy=0;startFill=0;" parent="1" target="OoIWjtk9Z4yZWAxyzODX-17" edge="1">
          <mxGeometry width="50" height="50" relative="1" as="geometry">
            <mxPoint x="350" y="380" as="sourcePoint" />
            <mxPoint x="503" y="565" as="targetPoint" />
            <Array as="points" />
          </mxGeometry>
        </mxCell>
        <mxCell id="OoIWjtk9Z4yZWAxyzODX-38" value="" style="endArrow=none;html=1;rounded=0;strokeColor=light-dark(#000000,#000000);endFill=0;strokeWidth=1;startSize=6;jumpSize=6;targetPerimeterSpacing=0;endSize=6;startFill=0;entryX=0;entryY=0.5;entryDx=0;entryDy=0;" parent="1" target="OoIWjtk9Z4yZWAxyzODX-7" edge="1">
          <mxGeometry width="50" height="50" relative="1" as="geometry">
            <mxPoint x="350" y="380" as="sourcePoint" />
            <mxPoint x="500" y="660" as="targetPoint" />
            <Array as="points" />
          </mxGeometry>
        </mxCell>
        <mxCell id="OoIWjtk9Z4yZWAxyzODX-39" value="" style="endArrow=none;html=1;rounded=0;strokeColor=light-dark(#000000,#000000);endFill=0;strokeWidth=1;startSize=6;jumpSize=6;targetPerimeterSpacing=0;endSize=6;startFill=0;entryX=0;entryY=0.5;entryDx=0;entryDy=0;" parent="1" target="OoIWjtk9Z4yZWAxyzODX-5" edge="1">
          <mxGeometry width="50" height="50" relative="1" as="geometry">
            <mxPoint x="350" y="380" as="sourcePoint" />
            <mxPoint x="503" y="380" as="targetPoint" />
            <Array as="points" />
          </mxGeometry>
        </mxCell>
        <mxCell id="OoIWjtk9Z4yZWAxyzODX-40" value="" style="endArrow=none;html=1;rounded=0;strokeColor=light-dark(#000000,#000000);endFill=0;strokeWidth=1;startSize=6;jumpSize=6;targetPerimeterSpacing=0;endSize=6;startFill=0;entryX=0;entryY=0.5;entryDx=0;entryDy=0;" parent="1" target="OoIWjtk9Z4yZWAxyzODX-3" edge="1">
          <mxGeometry width="50" height="50" relative="1" as="geometry">
            <mxPoint x="350" y="380" as="sourcePoint" />
            <mxPoint x="503" y="290" as="targetPoint" />
            <Array as="points" />
          </mxGeometry>
        </mxCell>
        <mxCell id="OoIWjtk9Z4yZWAxyzODX-41" value="" style="endArrow=none;html=1;rounded=0;strokeColor=light-dark(#000000,#000000);endFill=0;strokeWidth=1;startSize=6;jumpSize=6;targetPerimeterSpacing=0;endSize=6;startFill=0;entryX=0;entryY=0.5;entryDx=0;entryDy=0;" parent="1" target="OoIWjtk9Z4yZWAxyzODX-4" edge="1">
          <mxGeometry width="50" height="50" relative="1" as="geometry">
            <mxPoint x="350" y="380" as="sourcePoint" />
            <mxPoint x="503" y="200" as="targetPoint" />
            <Array as="points" />
          </mxGeometry>
        </mxCell>
        <mxCell id="Rk8quyE7qG9Wkb1XBJKe-2" value="&lt;font style=&quot;color: light-dark(rgb(0, 0, 0), rgb(0, 0, 0));&quot; face=&quot;Courier New&quot;&gt;&lt;span style=&quot;font-size: 14px;&quot;&gt;&lt;b&gt;Modifica&lt;/b&gt;&lt;/span&gt;&lt;/font&gt;&lt;div&gt;&lt;font style=&quot;color: light-dark(rgb(0, 0, 0), rgb(0, 0, 0));&quot; face=&quot;Courier New&quot;&gt;&lt;span style=&quot;font-size: 14px;&quot;&gt;&lt;b&gt;Account&lt;/b&gt;&lt;/span&gt;&lt;/font&gt;&lt;/div&gt;" style="ellipse;whiteSpace=wrap;html=1;fillColor=light-dark(#FFFFC6,#FDF89C);strokeColor=light-dark(#000000,#000000);gradientColor=none;" parent="1" vertex="1">
          <mxGeometry x="517.5" y="220" width="165" height="60" as="geometry" />
        </mxCell>
        <mxCell id="Rk8quyE7qG9Wkb1XBJKe-3" value="" style="endArrow=none;html=1;rounded=0;strokeColor=light-dark(#000000,#000000);endFill=0;strokeWidth=1;startSize=6;jumpSize=6;targetPerimeterSpacing=0;endSize=6;startFill=0;entryX=0;entryY=0.5;entryDx=0;entryDy=0;" parent="1" target="Rk8quyE7qG9Wkb1XBJKe-2" edge="1">
          <mxGeometry width="50" height="50" relative="1" as="geometry">
            <mxPoint x="350" y="380" as="sourcePoint" />
            <mxPoint x="633" y="350" as="targetPoint" />
            <Array as="points" />
          </mxGeometry>
        </mxCell>
        <mxCell id="Rk8quyE7qG9Wkb1XBJKe-4" value="" style="endArrow=none;html=1;rounded=0;strokeColor=light-dark(#000000,#000000);endFill=0;strokeWidth=1;startSize=6;jumpSize=6;targetPerimeterSpacing=0;endSize=6;startFill=0;exitX=1;exitY=0.5;exitDx=0;exitDy=0;" parent="1" source="Rk8quyE7qG9Wkb1XBJKe-2" edge="1">
          <mxGeometry width="50" height="50" relative="1" as="geometry">
            <mxPoint x="730" y="460" as="sourcePoint" />
            <mxPoint x="840" y="370" as="targetPoint" />
            <Array as="points" />
          </mxGeometry>
        </mxCell>
        <mxCell id="9GdEjkXY9jmI7ddyjthw-1" value="&lt;font style=&quot;color: light-dark(rgb(0, 0, 0), rgb(0, 0, 0));&quot; face=&quot;Courier New&quot;&gt;&lt;span style=&quot;font-size: 14px;&quot;&gt;&lt;b style=&quot;&quot;&gt;Accedi&lt;/b&gt;&lt;/span&gt;&lt;/font&gt;&lt;div&gt;&lt;font style=&quot;color: light-dark(rgb(0, 0, 0), rgb(0, 0, 0));&quot; face=&quot;Courier New&quot;&gt;&lt;span style=&quot;font-size: 14px;&quot;&gt;&lt;b style=&quot;&quot;&gt;a nuova&lt;/b&gt;&lt;/span&gt;&lt;/font&gt;&lt;/div&gt;&lt;div&gt;&lt;font style=&quot;color: light-dark(rgb(0, 0, 0), rgb(0, 0, 0));&quot; face=&quot;Courier New&quot;&gt;&lt;span style=&quot;font-size: 14px;&quot;&gt;&lt;b style=&quot;&quot;&gt;conferenza&lt;/b&gt;&lt;/span&gt;&lt;/font&gt;&lt;/div&gt;" style="ellipse;whiteSpace=wrap;html=1;fillColor=light-dark(#FFFFC6,#FDF89C);strokeColor=light-dark(#000000,#000000);" vertex="1" parent="1">
          <mxGeometry x="517.5" y="640" width="165" height="60" as="geometry" />
        </mxCell>
        <mxCell id="9GdEjkXY9jmI7ddyjthw-2" value="" style="endArrow=none;html=1;rounded=0;strokeColor=light-dark(#000000,#000000);endFill=0;strokeWidth=1;startSize=6;jumpSize=6;targetPerimeterSpacing=0;endSize=6;entryX=1;entryY=0.5;entryDx=0;entryDy=0;startFill=0;" edge="1" parent="1" target="9GdEjkXY9jmI7ddyjthw-1">
          <mxGeometry width="50" height="50" relative="1" as="geometry">
            <mxPoint x="840" y="370" as="sourcePoint" />
            <mxPoint x="673" y="635" as="targetPoint" />
            <Array as="points" />
          </mxGeometry>
        </mxCell>
        <mxCell id="9GdEjkXY9jmI7ddyjthw-3" value="" style="endArrow=none;html=1;rounded=0;strokeColor=light-dark(#000000,#000000);endFill=0;strokeWidth=1;startSize=6;jumpSize=6;targetPerimeterSpacing=0;endSize=6;entryX=0;entryY=0.5;entryDx=0;entryDy=0;startFill=0;" edge="1" parent="1" target="9GdEjkXY9jmI7ddyjthw-1">
          <mxGeometry width="50" height="50" relative="1" as="geometry">
            <mxPoint x="350" y="380" as="sourcePoint" />
            <mxPoint x="508" y="730" as="targetPoint" />
            <Array as="points" />
          </mxGeometry>
        </mxCell>
      </root>
    </mxGraphModel>
  </diagram>
</mxfile>
